<?xml version="1.0" encoding="UTF-8"?>
<svg version="1.1" xmlns="http://www.w3.org/2000/svg" width="76" height="76">
<path d="M0 0 C25.08 0 50.16 0 76 0 C76 25.08 76 50.16 76 76 C50.92 76 25.84 76 0 76 C0 50.92 0 25.84 0 0 Z " fill="#F9F9F1" transform="translate(0,0)"/>
<path d="M0 0 C1.875 0.1875 1.875 0.1875 4 1 C5.52164099 3.89111788 6 5.71823412 6 9 C6.66 9 7.32 9 8 9 C8.66 10.65 9.32 12.3 10 14 C10.26554687 13.28972656 10.53109375 12.57945313 10.8046875 11.84765625 C11.33449219 10.46900391 11.33449219 10.46900391 11.875 9.0625 C12.22304688 8.14597656 12.57109375 7.22945312 12.9296875 6.28515625 C14 4 14 4 16 3 C16.33 11.58 16.66 20.16 17 29 C17.66 29 18.32 29 19 29 C18.95359375 28.33613281 18.9071875 27.67226563 18.859375 26.98828125 C18.56510797 19.7892485 18.56510797 19.7892485 20.6875 15.9375 C23.20795098 13.8257708 24.75525016 13.27039582 28 13 C27.49145873 17.44973611 25.85582283 19.62493666 23 23 C22.29114106 24.31138904 21.60543548 25.63777017 21 27 C23.95929119 24.24479785 26.03681826 21.53372712 28 18 C28.598125 18.165 29.19625 18.33 29.8125 18.5 C33.15649939 19.26434272 35.75068088 18.8963639 39 18 C38.42655063 20.86724686 38.1385485 21.8614515 36 24 C33.31160615 24.26991906 30.70858064 24.08737357 28 24 C28.66 24.66 29.32 25.32 30 26 C31.093125 25.95875 32.18625 25.9175 33.3125 25.875 C37 26 37 26 39.9375 27.5625 C42 30 42 30 42.4375 33.625 C42 37 42 37 40 39 C36.875 39.125 36.875 39.125 34 39 C31.90649311 35.5980513 31.82057837 32.94727588 32 29 C27.90117075 28.09825757 25.58755072 27.77150805 21.625 29.3125 C18.91910872 30.7363336 18.91910872 30.7363336 18 33 C18.886875 32.9175 19.77375 32.835 20.6875 32.75 C24.72466718 33.05469186 26.13864711 34.22040005 29 37 C30.85012543 40.70025085 30.46256425 44.96070655 30 49 C28.375 51.625 28.375 51.625 26 53 C22.37634986 53.60394169 20.69833515 53.42974471 17.5625 51.5 C15.55860136 48.29376218 15.84761483 46.53276756 16.50390625 42.90625 C17.06573811 40.74740002 17.8163046 38.89391264 19 37 C18.34 37 17.68 37 17 37 C16.34 39.64 15.68 42.28 15 45 C14.67 45 14.34 45 14 45 C13.875 37.25 13.875 37.25 15 35 C15.66 35 16.32 35 17 35 C17 34.01 17 33.02 17 32 C15.35 32 13.7 32 12 32 C12.144375 33.02480469 12.28875 34.04960938 12.4375 35.10546875 C12.62517625 36.46612154 12.81266642 37.82679999 13 39.1875 C13.09539063 39.86103516 13.19078125 40.53457031 13.2890625 41.22851562 C14.27456144 48.44377569 14.27456144 48.44377569 14 52 C11.73920102 54.5216604 10.29534867 54.95780733 6.9375 55.4375 C4 55 4 55 2.125 53.4375 C0.6295056 50.19726212 0.79669598 47.52393641 1 44 C1.99 44 2.98 44 4 44 C4.66 43.34 5.32 42.68 6 42 C6.99 42 7.98 42 9 42 C9.33 39.03 9.66 36.06 10 33 C7.69 33 5.38 33 3 33 C2.73058594 33.55171875 2.46117188 34.1034375 2.18359375 34.671875 C0.87717993 37.24158666 -0.501305 39.7503629 -1.9375 42.25 C-2.44152344 43.14203125 -2.94554687 44.0340625 -3.46484375 44.953125 C-3.97144531 45.62859375 -4.47804688 46.3040625 -5 47 C-5.99 47 -6.98 47 -8 47 C-8.36630156 43.06225823 -8.30233203 41.43460229 -6 38.125 C-5.34 37.42375 -4.68 36.7225 -4 36 C-5.98 36.495 -5.98 36.495 -8 37 C-8 36.01 -8 35.02 -8 34 C-5.525 33.505 -5.525 33.505 -3 33 C-3 32.34 -3 31.68 -3 31 C-6.63 31 -10.26 31 -14 31 C-13.34 29.68 -12.68 28.36 -12 27 C-7.19771643 26.66495696 -5.02902364 27.52060084 -1 30 C1.60170618 30.12523229 1.60170618 30.12523229 4 30 C3.40832031 29.70867188 2.81664063 29.41734375 2.20703125 29.1171875 C-4.87651911 25.44252353 -9.43554547 21.31651192 -13 14 C-13.1875 11.1875 -13.1875 11.1875 -13 9 C-9.78745068 10.37188265 -8.20144663 11.78455113 -6.125 14.5625 C-1.18479599 20.47988722 5.46262595 24.08301582 12 28 C11.22914062 27.23429687 10.45828125 26.46859375 9.6640625 25.6796875 C3.85548845 19.83704557 -1.10999205 14.29021067 -1.25 5.6875 C-1 2 -1 2 0 0 Z " fill="#414037" transform="translate(24,11)"/>
<path d="M0 0 C1.875 0.1875 1.875 0.1875 4 1 C5.52164099 3.89111788 6 5.71823412 6 9 C6.66 9 7.32 9 8 9 C8.66 10.65 9.32 12.3 10 14 C10.26554687 13.28972656 10.53109375 12.57945313 10.8046875 11.84765625 C11.33449219 10.46900391 11.33449219 10.46900391 11.875 9.0625 C12.22304688 8.14597656 12.57109375 7.22945312 12.9296875 6.28515625 C14 4 14 4 16 3 C16.02505615 3.60473145 16.0501123 4.20946289 16.07592773 4.83251953 C16.19263006 7.5968562 16.31501734 10.36091366 16.4375 13.125 C16.47681641 14.07632812 16.51613281 15.02765625 16.55664062 16.0078125 C16.77053023 20.74628987 17.06561821 25.33594301 18 30 C9.3721785 31.46743685 4.25368825 30.45405091 -3.25 26.125 C-7.50933839 22.83369306 -10.59439504 18.81120992 -13 14 C-13.1875 11.1875 -13.1875 11.1875 -13 9 C-9.78745068 10.37188265 -8.20144663 11.78455113 -6.125 14.5625 C-1.18479599 20.47988722 5.46262595 24.08301582 12 28 C11.22914062 27.23429687 10.45828125 26.46859375 9.6640625 25.6796875 C3.85548845 19.83704557 -1.10999205 14.29021067 -1.25 5.6875 C-1 2 -1 2 0 0 Z " fill="#B9BE63" transform="translate(24,11)"/>
<path d="M0 0 C1.65 0 3.3 0 5 0 C5 0.99 5 1.98 5 3 C4.34 3 3.68 3 3 3 C3 4.32 3 5.64 3 7 C3.66 6.01 4.32 5.02 5 4 C5.99 4.33 6.98 4.66 8 5 C7.690625 5.495 7.38125 5.99 7.0625 6.5 C5.56440985 10.024918 5.30834794 13.17648559 5 17 C5.33 17.66 5.66 18.32 6 19 C5.01 19.66 4.02 20.32 3 21 C4.32 21.66 5.64 22.32 7 23 C7 23.99 7 24.98 7 26 C4.36 26 1.72 26 -1 26 C-1 25.34 -1 24.68 -1 24 C-2.2375 24.2475 -3.475 24.495 -4.75 24.75 C-8.64878606 25.25463011 -8.64878606 25.25463011 -11.5 23.1875 C-13 21 -13 21 -13 19 C-13.99 19 -14.98 19 -16 19 C-15.690625 18.401875 -15.38125 17.80375 -15.0625 17.1875 C-13.89790296 14.91043228 -13.89790296 14.91043228 -13 12 C-13.66 12 -14.32 12 -15 12 C-13.53923831 7.8611752 -11.87551526 4.34181504 -9 1 C-5.25 0.625 -5.25 0.625 -2 1 C-2.07089336 4.07419399 -2.25637755 7.00957544 -3 10 C-5.4375 12 -5.4375 12 -8 13 C-8.99 13.495 -8.99 13.495 -10 14 C-9.81535634 18.34184202 -9.81535634 18.34184202 -8 22 C-3.96839809 22.26293056 -2.44107266 22.29404844 1 20 C0.835 18.741875 0.67 17.48375 0.5 16.1875 C-0.11073012 10.7855491 -0.09133564 5.42939662 0 0 Z " fill="#EFEFDC" transform="translate(36,43)"/>
<path d="M0 0 C0.66 3.3 1.32 6.6 2 10 C4.31 9.34 6.62 8.68 9 8 C9.33 6.02 9.66 4.04 10 2 C10.33 2 10.66 2 11 2 C11.7131105 5.70169178 12.23414147 9.22712954 12 13 C10.28050425 15.42144179 8.56027156 16.3614262 6 18 C5.67 18.99 5.34 19.98 5 21 C2.78515625 22.60546875 2.78515625 22.60546875 0.0625 24.1875 C-0.83339844 24.71730469 -1.72929688 25.24710938 -2.65234375 25.79296875 C-5 27 -5 27 -7 27 C-7 26.34 -7 25.68 -7 25 C-7.99 24.67 -8.98 24.34 -10 24 C-8.5459375 23.566875 -8.5459375 23.566875 -7.0625 23.125 C-3.89335797 22.35785318 -3.89335797 22.35785318 -3 20 C-2.37238751 14.93427059 -2.15777977 11.21378798 -5.125 6.9375 C-8.21396297 4.85580757 -10.31315759 4.25722156 -14 4 C-13 1 -13 1 -10.375 -0.8125 C-6.1679485 -2.29275886 -4.09505707 -1.55612169 0 0 Z " fill="#EEEFD7" transform="translate(56,40)"/>
<path d="M0 0 C3 1.875 3 1.875 5 5 C5.85180955 9.66610717 5.90350969 13.54048435 3.375 17.625 C0.27095134 19.42208081 -1.46656253 19.58890625 -5 19 C-7.4375 17.5 -7.4375 17.5 -9 15 C-9.20289136 10.69517454 -8.29482282 6.67171651 -6 3 C-6.66 3 -7.32 3 -8 3 C-8.66 5.64 -9.32 8.28 -10 11 C-10.33 11 -10.66 11 -11 11 C-11.35820896 3.71641791 -11.35820896 3.71641791 -10 1 C-6.69856839 -0.65071581 -3.54207688 -0.70290242 0 0 Z " fill="#0D0D0D" transform="translate(49,45)"/>
<path d="M0 0 C1.875 0.1875 1.875 0.1875 4 1 C5.52164099 3.89111788 6 5.71823412 6 9 C6.66 9 7.32 9 8 9 C8.33773437 9.88042969 8.67546875 10.76085938 9.0234375 11.66796875 C9.46945313 12.82941406 9.91546875 13.99085937 10.375 15.1875 C10.81585938 16.33605469 11.25671875 17.48460938 11.7109375 18.66796875 C12.78852143 21.45335994 13.8836443 24.22997721 15 27 C11.17025993 26.88394727 9.14545359 25.52703427 6.4375 23 C1.75704598 18.00274669 -1.18687695 12.49689247 -1.3125 5.5625 C-1 2 -1 2 0 0 Z " fill="#B2B741" transform="translate(24,11)"/>
<path d="M0 0 C0.33 0 0.66 0 1 0 C1.33895656 1.72807318 1.67091525 3.45751974 2 5.1875 C2.185625 6.15042969 2.37125 7.11335938 2.5625 8.10546875 C2.97266544 10.81915257 3.19951871 13.26374336 3 16 C0.73920102 18.5216604 -0.70465133 18.95780733 -4.0625 19.4375 C-7 19 -7 19 -8.875 17.4375 C-10.3704944 14.19726212 -10.20330402 11.52393641 -10 8 C-9.01 8 -8.02 8 -7 8 C-6.34 7.34 -5.68 6.68 -5 6 C-4.01 6 -3.02 6 -2 6 C-2 5.01 -2 4.02 -2 3 C-1.34 3 -0.68 3 0 3 C0 2.01 0 1.02 0 0 Z " fill="#B1B53C" transform="translate(35,47)"/>
<path d="M0 0 C0.99 1.485 0.99 1.485 2 3 C2.66 2.67 3.32 2.34 4 2 C3.67 3.65 3.34 5.3 3 7 C4.65 7 6.3 7 8 7 C8 7.33 8 7.66 8 8 C9.65 8.33 11.3 8.66 13 9 C13 10.65 13 12.3 13 14 C13.66 14.33 14.32 14.66 15 15 C14.01 15.33 13.02 15.66 12 16 C10.62322215 17.86307651 10.62322215 17.86307651 9.4375 20.0625 C8.18359375 22.28515625 8.18359375 22.28515625 7 24 C6.34 24 5.68 24 5 24 C6.26828506 19.45531185 7.98672836 16.59648551 11 13 C11.33 12.01 11.66 11.02 12 10 C7.29157376 12.11326526 7.29157376 12.11326526 4 16 C3.54398739 18.50896686 3.54398739 18.50896686 3.375 21.1875 C3.30023438 22.08855469 3.22546875 22.98960938 3.1484375 23.91796875 C3.09945312 24.60503906 3.05046875 25.29210937 3 26 C2.34 26 1.68 26 1 26 C0.22471521 22.57426063 -0.11918778 19.42760755 -0.09765625 15.91796875 C-0.09443359 14.98662109 -0.09121094 14.05527344 -0.08789062 13.09570312 C-0.07951172 12.13599609 -0.07113281 11.17628906 -0.0625 10.1875 C-0.05798828 9.20845703 -0.05347656 8.22941406 -0.04882812 7.22070312 C-0.03708684 4.81373889 -0.02066419 2.40690143 0 0 Z " fill="#F7F6EB" transform="translate(40,14)"/>
<path d="M0 0 C3.37033434 -0.23513961 5.39577669 -0.37559828 8.3125 1.4375 C12.07113834 3.62275485 15.71964751 3.72956379 20 4 C20 4.33 20 4.66 20 5 C18.824375 5.12375 18.824375 5.12375 17.625 5.25 C14.90835504 5.69537807 14.90835504 5.69537807 14.01953125 7.71875 C13.51486328 8.84796875 13.51486328 8.84796875 13 10 C12.04181083 11.76157341 11.06151585 13.51125485 10.0625 15.25 C9.55847656 16.14203125 9.05445313 17.0340625 8.53515625 17.953125 C8.02855469 18.62859375 7.52195312 19.3040625 7 20 C6.01 20 5.02 20 4 20 C3.63369844 16.06225823 3.69766797 14.43460229 6 11.125 C6.66 10.42375 7.32 9.7225 8 9 C6.68 9.33 5.36 9.66 4 10 C4 9.01 4 8.02 4 7 C5.65 6.67 7.3 6.34 9 6 C9 5.34 9 4.68 9 4 C5.37 4 1.74 4 -2 4 C-1.34 2.68 -0.68 1.36 0 0 Z " fill="#88887A" transform="translate(12,38)"/>
<path d="M0 0 C0.99 0.33 1.98 0.66 3 1 C4.11375 0.938125 5.2275 0.87625 6.375 0.8125 C10 1 10 1 12.9375 2.5625 C15 5 15 5 15.4375 8.625 C15 12 15 12 13 14 C9.875 14.125 9.875 14.125 7 14 C4.90649311 10.5980513 4.82057837 7.94727588 5 4 C3.824375 3.814375 3.824375 3.814375 2.625 3.625 C0 3 0 3 -2 1 C-1.34 0.67 -0.68 0.34 0 0 Z " fill="#B3B641" transform="translate(51,36)"/>
<path d="M0 0 C2.46278801 2.46278801 2.99771255 4.70676982 4 8 C4.66 7.01 5.32 6.02 6 5 C6.25652344 5.6290625 6.51304688 6.258125 6.77734375 6.90625 C9.93262944 13.96049142 13.93742646 18.2714568 20 23 C19.34 23.33 18.68 23.66 18 24 C15.67283184 22.74435544 13.51498675 21.44942433 11.3125 20 C10.6819873 19.59080322 10.05147461 19.18160645 9.40185547 18.76000977 C4.68651325 15.62639627 0.78363661 12.23406954 -3 8 C-2.34 7.67 -1.68 7.34 -1 7 C-1.66 5.02 -2.32 3.04 -3 1 C-2.01 0.67 -1.02 0.34 0 0 Z " fill="#F0F0D8" transform="translate(18,16)"/>
<path d="M0 0 C0.66 3.3 1.32 6.6 2 10 C0.35 10 -1.3 10 -3 10 C-4.66666667 8.33333333 -6.33333333 6.66666667 -8 5 C-11.18150892 4.12010026 -11.18150892 4.12010026 -14 4 C-13 1 -13 1 -10.375 -0.8125 C-6.1679485 -2.29275886 -4.09505707 -1.55612169 0 0 Z " fill="#E5E5E1" transform="translate(56,40)"/>
<path d="M0 0 C0.556875 0.7425 1.11375 1.485 1.6875 2.25 C5.53960658 6.83088349 9.60837097 9.47625875 15 12 C16.33476292 12.6637998 17.6683893 13.32989913 19 14 C13.25206873 14.3381136 9.92737889 14.19613766 5 11 C0.84504291 10.67225443 0.84504291 10.67225443 -3 12 C-4.10844919 8.67465243 -3.84454356 6.37817425 -3 3 C-2.34 3 -1.68 3 -1 3 C-0.67 2.01 -0.34 1.02 0 0 Z " fill="#F4F4E4" transform="translate(13,28)"/>
<path d="M0 0 C3.28713131 1.39756559 4.99488612 2.95644751 7.1875 5.75 C10.44767937 9.64804055 13.93339129 12.17721884 18.27734375 14.7734375 C18.84582031 15.17820312 19.41429688 15.58296875 20 16 C20 16.66 20 17.32 20 18 C15.49197399 16.74194623 12.5087188 15.09592835 9 12 C9 12.66 9 13.32 9 14 C6.42665165 13.62609468 5.26926453 13.3032769 3.515625 11.328125 C-0.69081977 4.42124655 -0.69081977 4.42124655 0 0 Z " fill="#B2B841" transform="translate(11,20)"/>
<path d="M0 0 C1.65 0.33 3.3 0.66 5 1 C4.88140625 1.56847656 4.7628125 2.13695312 4.640625 2.72265625 C3.57732324 9.0918338 4.58670709 11.62147785 8 17 C8.25 19.9375 8.25 19.9375 8 22 C7.34 22.33 6.68 22.66 6 23 C5.938125 21.9275 5.87625 20.855 5.8125 19.75 C5.30039286 15.96808656 5.30039286 15.96808656 2.9375 13.5625 C-1.01284735 11.46125141 -3.56777305 11.69951004 -8 12 C-8.33 11.01 -8.66 10.02 -9 9 C-7.72125 8.87625 -6.4425 8.7525 -5.125 8.625 C-1.65209064 8.30957601 -1.65209064 8.30957601 1 6 C1.6425235 3.93125966 1.6425235 3.93125966 2 2 C1.34 2 0.68 2 0 2 C0 1.34 0 0.68 0 0 Z " fill="#FCFBF5" transform="translate(61,26)"/>
<path d="M0 0 C1.65 0 3.3 0 5 0 C5 0.99 5 1.98 5 3 C4.34 3 3.68 3 3 3 C3 4.32 3 5.64 3 7 C3.66 6.01 4.32 5.02 5 4 C5.99 4.33 6.98 4.66 8 5 C7.71125 5.495 7.4225 5.99 7.125 6.5 C6.09933288 8.77926027 5.54823154 10.76396851 5 13.1875 C4.67 14.445625 4.34 15.70375 4 17 C3.34 17.33 2.68 17.66 2 18 C-0.1583195 11.92972642 -0.20852314 6.40629424 0 0 Z " fill="#9D9E82" transform="translate(36,43)"/>
<path d="M0 0 C-0.51122696 4.47323588 -2.16665031 6.58331362 -5 10 C-6.04451438 11.97711651 -7.05698138 13.97250996 -8 16 C-8.33 16 -8.66 16 -9 16 C-9.62739631 7.0247473 -9.62739631 7.0247473 -7.125 2.9375 C-4.43866192 0.48819175 -3.66724623 0 0 0 Z " fill="#BFC46D" transform="translate(52,24)"/>
<path d="M0 0 C0.8971875 0.309375 0.8971875 0.309375 1.8125 0.625 C-0.85416667 4.625 -3.52083333 8.625 -6.1875 12.625 C-7.1775 12.625 -8.1675 12.625 -9.1875 12.625 C-9.53848791 8.85187995 -9.49390454 7.08988965 -7.375 3.875 C-3.0922619 -0.53010204 -3.0922619 -0.53010204 0 0 Z " fill="#B8BC51" transform="translate(25.1875,45.375)"/>
<path d="M0 0 C2 1 2 1 4 4 C4.32727273 9.34545455 4.32727273 9.34545455 3 12 C-2.42307692 15 -2.42307692 15 -5 15 C-5 14.34 -5 13.68 -5 13 C-5.99 12.67 -6.98 12.34 -8 12 C-6.02 11.34 -4.04 10.68 -2 10 C-1.34 6.7 -0.68 3.4 0 0 Z " fill="#E3E3E1" transform="translate(54,52)"/>
<path d="M0 0 C0.33 0 0.66 0 1 0 C1 7.26 1 14.52 1 22 C-1.97905147 19.02094853 -2.98281064 17.14738989 -3.046875 12.87109375 C-2.94890625 11.73800781 -2.8509375 10.60492188 -2.75 9.4375 C-2.66234375 8.30183594 -2.5746875 7.16617187 -2.484375 5.99609375 C-2 3 -2 3 0 0 Z " fill="#B8BD54" transform="translate(39,14)"/>
<path d="M0 0 C0.1546875 0.62261719 0.309375 1.24523437 0.46875 1.88671875 C0.79861005 3.19888262 1.14020075 4.50822773 1.5 5.8125 C2 8 2 8 2.4375 11.6875 C2.623125 12.780625 2.80875 13.87375 3 15 C3.66 15.33 4.32 15.66 5 16 C5.625 19.0625 5.625 19.0625 6 22 C4.68 22 3.36 22 2 22 C1 19 1 19 1 16 C0.46375 15.154375 -0.0725 14.30875 -0.625 13.4375 C-2.57095292 8.57261769 -1.35377932 4.92814631 0 0 Z " fill="#CACC84" transform="translate(36,19)"/>
<path d="M0 0 C3.07131029 1.26465718 4.35360196 3.11949193 6.125 5.875 C5.795 6.865 5.465 7.855 5.125 8.875 C4.135 8.545 3.145 8.215 2.125 7.875 C1.795 8.865 1.465 9.855 1.125 10.875 C0.83496094 10.04355469 0.83496094 10.04355469 0.5390625 9.1953125 C0.27867188 8.47085937 0.01828125 7.74640625 -0.25 7 C-0.63285156 5.92105469 -0.63285156 5.92105469 -1.0234375 4.8203125 C-1.81377783 2.69342006 -1.81377783 2.69342006 -3.875 0.875 C-1.875 -0.125 -1.875 -0.125 0 0 Z " fill="#F5F6E8" transform="translate(28.875,9.125)"/>
<path d="M0 0 C3.625 -0.1875 3.625 -0.1875 7 0 C7 1.32 7 2.64 7 4 C5.865625 4.28875 4.73125 4.5775 3.5625 4.875 C2.386875 5.24625 1.21125 5.6175 0 6 C-0.33 6.66 -0.66 7.32 -1 8 C-1.625 5.6875 -1.625 5.6875 -2 3 C-1.34 2.01 -0.68 1.02 0 0 Z " fill="#F6F5EC" transform="translate(27,44)"/>
<path d="M0 0 C0.99 0 1.98 0 3 0 C2.67 1.65 2.34 3.3 2 5 C2.66 5.33 3.32 5.66 4 6 C5 7 5 7 6 10 C4.02 10 2.04 10 0 10 C-0.19412181 8.52168779 -0.38012131 7.04230684 -0.5625 5.5625 C-0.66691406 4.73878906 -0.77132812 3.91507813 -0.87890625 3.06640625 C-0.91886719 2.38449219 -0.95882812 1.70257813 -1 1 C-0.67 0.67 -0.34 0.34 0 0 Z " fill="#AFB435" transform="translate(58,40)"/>
<path d="M0 0 C0.3125 2.3125 0.3125 2.3125 0 5 C-2.375 6.75 -2.375 6.75 -5 8 C-5.99 8.495 -5.99 8.495 -7 9 C-7.8125 7.3125 -7.8125 7.3125 -8 5 C-3.90909091 0 -3.90909091 0 0 0 Z " fill="#D4D697" transform="translate(33,48)"/>
<path d="M0 0 C0.99 0 1.98 0 3 0 C2.42655063 2.86724686 2.1385485 3.8614515 0 6 C-2.68839385 6.26991906 -5.29141936 6.08737357 -8 6 C-7.34 5.67 -6.68 5.34 -6 5 C-4.86649466 2.98330173 -4.86649466 2.98330173 -4 1 C-3.01 1 -2.02 1 -1 1 C-0.67 0.67 -0.34 0.34 0 0 Z " fill="#A1A854" transform="translate(60,29)"/>
<path d="M0 0 C1.32 0.33 2.64 0.66 4 1 C4.66 4.3 5.32 7.6 6 11 C2 9 2 9 0 6 C-0.125 2.8125 -0.125 2.8125 0 0 Z " fill="#D0D28F" transform="translate(52,39)"/>
<path d="M0 0 C0.33 0 0.66 0 1 0 C1 2.64 1 5.28 1 8 C1.99 8.33 2.98 8.66 4 9 C5.1328125 10.77734375 5.1328125 10.77734375 6.125 12.9375 C6.45757813 13.64777344 6.79015625 14.35804687 7.1328125 15.08984375 C7.41898438 15.72019531 7.70515625 16.35054687 8 17 C8.33 17.66 8.66 18.32 9 19 C4.18515438 16.9526618 2.00315936 13.75448668 0 9 C-0.38267536 5.94332149 -0.31869167 3.05944005 0 0 Z " fill="#AFB53E" transform="translate(24,15)"/>
<path d="M0 0 C2.10551443 3.15827164 3.88229719 6.40889542 5.68359375 9.74609375 C6.98172313 11.96870696 8.4166014 13.97343445 10 16 C9.67 16.66 9.34 17.32 9 18 C4.53476648 14.36166158 2.06669841 9.28532709 0 4 C0 2.68 0 1.36 0 0 Z " fill="#C4C46B" transform="translate(27,20)"/>
<path d="M0 0 C3.63 0.66 7.26 1.32 11 2 C10.67 2.66 10.34 3.32 10 4 C8.02 4 6.04 4 4 4 C3.67 5.32 3.34 6.64 3 8 C1.5268006 5.25002779 0.77595125 3.10380501 0 0 Z " fill="#FBFAF6" transform="translate(54,49)"/>
<path d="M0 0 C1.98 0 3.96 0 6 0 C6.66 1.32 7.32 2.64 8 4 C4.7 4 1.4 4 -2 4 C-1.34 2.68 -0.68 1.36 0 0 Z " fill="#B3B849" transform="translate(12,38)"/>
<path d="M0 0 C0.12375 0.639375 0.2475 1.27875 0.375 1.9375 C0.684375 2.9584375 0.684375 2.9584375 1 4 C1.66 4.33 2.32 4.66 3 5 C2.01 5.33 1.02 5.66 0 6 C-1.37677785 7.86307651 -1.37677785 7.86307651 -2.5625 10.0625 C-3.81640625 12.28515625 -3.81640625 12.28515625 -5 14 C-5.66 14 -6.32 14 -7 14 C-5.73171494 9.45531185 -4.01327164 6.59648551 -1 3 C-0.67 2.01 -0.34 1.02 0 0 Z " fill="#E0E0CE" transform="translate(52,24)"/>
<path d="M0 0 C0.625 1.8125 0.625 1.8125 1 4 C0.01 5.485 0.01 5.485 -1 7 C-0.67 7.66 -0.34 8.32 0 9 C-3.3 9 -6.6 9 -10 9 C-10.33 8.01 -10.66 7.02 -11 6 C-9.741875 5.938125 -8.48375 5.87625 -7.1875 5.8125 C-4.99662023 5.61479712 -4.99662023 5.61479712 -3 5 C-0.93545998 2.59256899 -0.93545998 2.59256899 0 0 Z " fill="#EAE8CB" transform="translate(63,29)"/>
<path d="M0 0 C0.99 0 1.98 0 3 0 C3.08159574 4.16138263 2.98248524 7.9472484 2 12 C1.01 11.34 0.02 10.68 -1 10 C-1.328125 8.125 -1.328125 8.125 -1.25 6 C-1.22679688 4.948125 -1.22679688 4.948125 -1.203125 3.875 C-1 2 -1 2 0 0 Z " fill="#BABD50" transform="translate(24,11)"/>
<path d="M0 0 C0.99 0.33 1.98 0.66 3 1 C4.66621616 1.03874921 6.33394172 1.0450286 8 1 C7.34 3.97 6.68 6.94 6 10 C5.67 10 5.34 10 5 10 C5 8.02 5 6.04 5 4 C3.824375 3.814375 3.824375 3.814375 2.625 3.625 C0 3 0 3 -2 1 C-1.34 0.67 -0.68 0.34 0 0 Z " fill="#9A9D49" transform="translate(51,36)"/>
<path d="M0 0 C1.68272986 0.62501395 3.34630643 1.30177383 5 2 C7.32748694 2.68679942 9.65986656 3.35761043 12 4 C12 4.33 12 4.66 12 5 C3.96498906 5.63019694 3.96498906 5.63019694 -0.0625 3 C-0.701875 2.34 -1.34125 1.68 -2 1 C-1.34 0.67 -0.68 0.34 0 0 Z " fill="#F0F0DC" transform="translate(20,37)"/>
<path d="M0 0 C0.66 0.66 1.32 1.32 2 2 C1.9765625 4.8203125 1.9765625 4.8203125 1.625 8.125 C1.51414062 9.22070312 1.40328125 10.31640625 1.2890625 11.4453125 C1.14597656 12.70988281 1.14597656 12.70988281 1 14 C0.67 14 0.34 14 0 14 C-0.33 11.69 -0.66 9.38 -1 7 C-1.66 7 -2.32 7 -3 7 C-1.125 2.25 -1.125 2.25 0 0 Z " fill="#EDEFD4" transform="translate(24,48)"/>
<path d="M0 0 C-0.30618405 3.67420866 -0.75771784 4.78135513 -3.5625 7.3125 C-4.366875 7.869375 -5.17125 8.42625 -6 9 C-5.4140625 2.84765625 -5.4140625 2.84765625 -5 1 C-3 0 -3 0 0 0 Z " fill="#B4BA47" transform="translate(52,24)"/>
<path d="M0 0 C3.63 2.31 7.26 4.62 11 7 C10.01 7.495 10.01 7.495 9 8 C6.99152635 7.01712992 4.99180409 6.01622658 3 5 C2.01 5 1.02 5 0 5 C0 3.33333333 0 1.66666667 0 0 Z " fill="#C4C66E" transform="translate(19,31)"/>
<path d="M0 0 C2.60045875 2.3024119 3.84739183 4.49896677 5.1875 7.6875 C5.53167969 8.49574219 5.87585937 9.30398437 6.23046875 10.13671875 C6.48441406 10.75160156 6.73835938 11.36648437 7 12 C6.34 12 5.68 12 5 12 C2.16741821 9.02149733 0.12535682 6.1783541 -0.3125 2.0625 C-0.209375 1.381875 -0.10625 0.70125 0 0 Z " fill="#B1B439" transform="translate(32,26)"/>
<path d="M0 0 C2.76223278 2.76223278 2.57856291 5.20706617 3 9 C-1.875 4.375 -1.875 4.375 -3 1 C-2.01 0.67 -1.02 0.34 0 0 Z " fill="#E9EDCF" transform="translate(18,16)"/>
<path d="M0 0 C1.65 0 3.3 0 5 0 C5 0.99 5 1.98 5 3 C4.34 3 3.68 3 3 3 C2.67 3.99 2.34 4.98 2 6 C1.34 6 0.68 6 0 6 C0 4.02 0 2.04 0 0 Z " fill="#DFDDDC" transform="translate(36,43)"/>
<path d="M0 0 C1.65 0 3.3 0 5 0 C5 0.33 5 0.66 5 1 C6.65 1.33 8.3 1.66 10 2 C7.66785852 3.20628008 5.50357861 4.1654738 3 5 C3 4.34 3 3.68 3 3 C2.01 3.33 1.02 3.66 0 4 C0 2.68 0 1.36 0 0 Z " fill="#F0F1DD" transform="translate(43,21)"/>
<path d="M0 0 C0.33 0 0.66 0 1 0 C1.33 2.64 1.66 5.28 2 8 C-1.8503105 10.56687367 -3.58569763 9.83288724 -8 9 C-8 8.67 -8 8.34 -8 8 C-5.69 7.34 -3.38 6.68 -1 6 C-0.67 4.02 -0.34 2.04 0 0 Z " fill="#EAEBCA" transform="translate(66,42)"/>
<path d="M0 0 C2.97 0.495 2.97 0.495 6 1 C5.67 1.99 5.34 2.98 5 4 C5.66 4.33 6.32 4.66 7 5 C5.68 5.33 4.36 5.66 3 6 C3 5.01 3 4.02 3 3 C2.01 3 1.02 3 0 3 C0 2.01 0 1.02 0 0 Z " fill="#F0F1D9" transform="translate(56,24)"/>
<path d="M0 0 C3.7910119 1.44950455 7.3874638 3.15172566 11 5 C7.96929372 6.28222189 6.96403086 5.98589446 3.8125 4.75 C1 3 1 3 0 0 Z " fill="#B4BC51" transform="translate(21,35)"/>
<path d="M0 0 C0.598125 0.20625 1.19625 0.4125 1.8125 0.625 C-0.55042656 3.15088702 -1.85212511 4.51320837 -5.1875 5.625 C-5.1875 4.305 -5.1875 2.985 -5.1875 1.625 C-2.1875 -0.375 -2.1875 -0.375 0 0 Z " fill="#C3C66D" transform="translate(25.1875,45.375)"/>
<path d="M0 0 C0.99 0 1.98 0 3 0 C4.23076923 5.41538462 4.23076923 5.41538462 3.0625 8.375 C2.711875 8.91125 2.36125 9.4475 2 10 C1.87625 8.88625 1.7525 7.7725 1.625 6.625 C1.3534187 2.96896323 1.3534187 2.96896323 -1 1 C-0.67 0.67 -0.34 0.34 0 0 Z " fill="#FDFCFA" transform="translate(39,11)"/>
<path d="M0 0 C0.99 0.33 1.98 0.66 3 1 C1.66666667 3.66666667 0.33333333 6.33333333 -1 9 C-1.09765625 2.84765625 -1.09765625 2.84765625 -1 1 C-0.67 0.67 -0.34 0.34 0 0 Z " fill="#D1D1D1" transform="translate(41,47)"/>
<path d="M0 0 C-0.3125 1.875 -0.3125 1.875 -1 4 C-1.99 4.66 -2.98 5.32 -4 6 C-4 5.01 -4 4.02 -4 3 C-4.66 2.67 -5.32 2.34 -6 2 C-3 0 -3 0 0 0 Z " fill="#B5BC53" transform="translate(63,29)"/>
<path d="M0 0 C0.33 0 0.66 0 1 0 C1 2.97 1 5.94 1 9 C0.01 9 -0.98 9 -2 9 C-1.125 1.125 -1.125 1.125 0 0 Z " fill="#AEB537" transform="translate(38,16)"/>
<path d="M0 0 C0.99 0.66 1.98 1.32 3 2 C2.67 2.99 2.34 3.98 2 5 C1.01 4.67 0.02 4.34 -1 4 C-1.33 4.99 -1.66 5.98 -2 7 C-2.33 5.35 -2.66 3.7 -3 2 C-2.01 2 -1.02 2 0 2 C0 1.34 0 0.68 0 0 Z " fill="#EBEDD1" transform="translate(32,13)"/>
<path d="M0 0 C0.56203125 0.31710938 1.1240625 0.63421875 1.703125 0.9609375 C4.15196317 2.06874525 6.08387855 2.38975399 8.75 2.625 C9.54921875 2.69976562 10.3484375 2.77453125 11.171875 2.8515625 C11.77515625 2.90054688 12.3784375 2.94953125 13 3 C13 3.33 13 3.66 13 4 C9.37 4 5.74 4 2 4 C1.34 2.68 0.68 1.36 0 0 Z " fill="#A2A672" transform="translate(19,39)"/>
<path d="M0 0 C3.465 1.98 3.465 1.98 7 4 C7 4.66 7 5.32 7 6 C4.0625 5.25 4.0625 5.25 1 4 C0.125 1.875 0.125 1.875 0 0 Z " fill="#B4BA4C" transform="translate(24,32)"/>
<path d="M0 0 C0.99 0 1.98 0 3 0 C2.67 1.65 2.34 3.3 2 5 C1.01 5 0.02 5 -1 5 C-0.67 3.35 -0.34 1.7 0 0 Z " fill="#1E1E20" transform="translate(52,29)"/>
<path d="M0 0 C1.74627478 2.61941217 2.38722388 4.03824877 3 7 C2.01 7.66 1.02 8.32 0 9 C-0.84454356 5.62182575 -1.10844919 3.32534757 0 0 Z " fill="#B9BE54" transform="translate(31,20)"/>
</svg>
